<?xml version="1.0" encoding="UTF-8"?>
<svg width="227px" height="123px" viewBox="0 0 227 123" version="1.1" xmlns="http://www.w3.org/2000/svg" xmlns:xlink="http://www.w3.org/1999/xlink">
    <!-- Generator: Sketch 55.2 (78181) - https://sketchapp.com -->
    <title>Group 23</title>
    <desc>Created with Sketch.</desc>
    <g id="Welcome" stroke="none" stroke-width="1" fill="none" fill-rule="evenodd">
        <g id="Desktop-Copy" transform="translate(-600.000000, -269.000000)" fill="#E6312C">
            <g id="Group-23" transform="translate(599.000000, 269.000000)">
                <path d="M124.806027,26.5908429 C121.025659,25.0972714 117.197598,23.5836184 113.382088,22.5117612 C117.609271,13.3721082 122.991149,5.36957755 131.879782,4.28767959 L131.879782,29.274251 C129.570394,28.4734959 127.203271,27.5397 124.806027,26.5908429 M105.442312,30.6322714 C105.073312,31.5585367 104.704312,32.472251 104.342843,33.3658837 C102.121312,38.8255776 98.993598,42.1716796 95.5370469,42.7917 C93.5364143,43.1506592 91.5433122,42.5030265 90.2254551,41.0596592 C88.8674347,39.5761286 88.3578633,37.4248837 88.8297816,35.1581694 C89.5477,31.6790265 92.4545163,28.5688837 96.8047,26.6184551 C99.0237204,25.6219041 101.373271,25.2102306 103.81068,25.2102306 C105.030639,25.2102306 106.27319,25.313149 107.530802,25.4989041 C106.807863,27.2359653 106.115047,28.9579653 105.442312,30.6322714 M154.12772,31.992802 L151.549741,28.7245163 C147.151863,32.1911082 141.837761,32.0856796 136.04421,30.5594755 L136.04421,0.000251020408 L133.960741,0.000251020408 C121.231496,0.000251020408 114.295802,10.4502306 109.252802,21.5428224 C104.42568,20.6667612 99.6638224,20.7747 95.1027816,22.8180061 C89.5175776,25.3206796 85.7447408,29.5102102 84.7532102,34.3122306 C84.0177204,37.8516184 84.9138633,41.4236388 87.1504551,43.8685776 C89.4397612,46.3737612 92.843598,47.5008429 96.2700265,46.8883531 C99.116598,46.3787816 104.450782,44.1497204 108.198516,34.9372714 C108.565006,34.0361082 108.934006,33.1148633 109.308027,32.1810673 C110.078659,30.2657816 110.859333,28.3128429 111.680169,26.3749653 C115.50321,27.391598 119.419129,28.9378837 123.274802,30.4640878 C126.133924,31.5936796 129.018149,32.7333122 131.879782,33.664598 L131.879782,54.5796184 C128.744537,52.9304143 124.464639,53.271802 120.990516,55.7719653 C116.344129,59.1180673 114.898251,65.0521898 117.759884,69.0283531 C120.624027,73.0070265 126.711271,73.5191082 131.355149,70.1755163 C134.427639,67.9665367 136.086884,64.6254551 136.04421,61.4676184 L136.04421,34.8494143 C142.472843,36.3806388 148.685598,36.2877612 154.12772,31.992802" id="Fill-1"></path>
                <polygon id="Fill-3" points="13.5555388 99.1011 13.5555388 122.584059 9.99857959 122.584059 9.99857959 99.1011 0.999497959 99.1011 0.999497959 95.9909571 22.5571306 95.9909571 22.5571306 99.1011"></polygon>
                <path d="M24.5010327,95.9904551 L27.8345837,95.9904551 L27.8345837,105.843006 C28.9466041,104.251537 30.8719306,102.840802 33.6130735,102.840802 C37.7247878,102.840802 40.0567673,105.694904 40.0567673,109.806618 L40.0567673,122.583557 L36.7232163,122.583557 L36.7232163,110.695231 C36.7232163,107.991741 35.5760531,105.953455 32.6868082,105.953455 C30.2795224,105.953455 27.8345837,107.805986 27.8345837,111.029088 L27.8345837,122.583557 L24.5010327,122.583557 L24.5010327,95.9904551 Z" id="Fill-6"></path>
                <path d="M46.3132,110.879982 L56.7581592,110.879982 C56.6853633,108.138839 55.2018327,105.6939 51.8331388,105.6939 C49.0166898,105.6939 46.9056082,107.584084 46.3132,110.879982 M42.9419959,112.918267 C42.9419959,107.139778 46.6094041,102.842308 51.8707918,102.842308 C57.2777714,102.842308 60.1293633,106.954022 60.1293633,112.323349 L60.1293633,113.435369 L46.1299551,113.435369 C46.3132,117.509431 48.6476898,120.102471 52.0163837,120.102471 C54.6119347,120.102471 56.4619551,118.694247 57.0543633,116.39741 L59.9812612,117.436635 C58.7964449,120.880635 55.8695469,122.991716 52.0163837,122.991716 C46.6470571,122.991716 42.9419959,118.880002 42.9419959,112.918267" id="Fill-8"></path>
                <path d="M75.550802,112.472204 L85.107149,112.472204 L80.2925776,99.9914694 L75.550802,112.472204 Z M82.3283531,95.9902041 L92.5875571,122.583306 L88.9929449,122.583306 L86.2894551,115.584857 L74.3634755,115.584857 L71.6976388,122.583306 L68.1431898,122.583306 L78.4023939,95.9902041 L82.3283531,95.9902041 Z" id="Fill-11"></path>
                <path d="M97.2035714,122.584059 L93.8700204,122.584059 L93.8700204,103.212814 L97.2035714,103.212814 L97.2035714,105.843508 C98.2402857,104.249529 100.092816,102.841304 102.798816,102.841304 C105.389347,102.841304 107.204224,104.13908 108.165633,106.139712 C109.24251,104.545733 111.315939,102.841304 114.353286,102.841304 C118.352041,102.841304 120.761837,105.692896 120.761837,109.80712 L120.761837,122.584059 L117.428286,122.584059 L117.428286,110.695733 C117.428286,107.992243 116.313755,105.953957 113.572612,105.953957 C111.353592,105.953957 108.981449,107.841631 108.981449,110.991937 L108.981449,122.584059 L105.647898,122.584059 L105.647898,110.695733 C105.647898,107.992243 104.538388,105.953957 101.797245,105.953957 C99.5732041,105.953957 97.2035714,107.841631 97.2035714,110.991937 L97.2035714,122.584059 Z" id="Fill-13"></path>
                <path d="M127.36769,113.620622 C127.36769,118.066194 130.108833,120.064316 132.849976,120.064316 C136.479731,120.064316 138.515506,117.064622 138.515506,112.917765 C138.515506,108.730745 136.479731,105.768704 132.849976,105.768704 C130.108833,105.768704 127.36769,107.731684 127.36769,112.250051 L127.36769,113.620622 Z M127.440486,119.768112 L127.440486,122.584561 L124.106935,122.584561 L124.106935,95.9914592 L127.440486,95.9914592 L127.440486,106.027255 C128.587649,104.139582 130.738894,102.841806 133.442384,102.841806 C138.81422,102.841806 141.88671,107.397827 141.88671,112.917765 C141.88671,118.397541 138.81422,122.991214 133.442384,122.991214 C130.738894,122.991214 128.587649,121.695949 127.440486,119.768112 L127.440486,119.768112 Z" id="Fill-15"></path>
                <path d="M145.248878,122.584812 L148.582429,122.584812 L148.582429,103.213567 L145.248878,103.213567 L145.248878,122.584812 Z M145.100776,99.8423633 L148.72802,99.8423633 L148.72802,95.9892 L145.100776,95.9892 L145.100776,99.8423633 Z" id="Fill-17"></path>
                <path d="M155.249782,110.879982 L165.694741,110.879982 C165.621945,108.138839 164.138414,105.6939 160.76972,105.6939 C157.953271,105.6939 155.84219,107.584084 155.249782,110.879982 M151.878578,112.918267 C151.878578,107.139778 155.545986,102.842308 160.807373,102.842308 C166.214353,102.842308 169.065945,106.954022 169.065945,112.323349 L169.065945,113.435369 L155.066537,113.435369 C155.249782,117.509431 157.584271,120.102471 160.952965,120.102471 C163.548516,120.102471 165.398537,118.694247 165.990945,116.39741 L168.917843,117.436635 C167.733027,120.880635 164.806129,122.991716 160.952965,122.991716 C155.583639,122.991716 151.878578,118.880002 151.878578,112.918267" id="Fill-19"></path>
                <path d="M172.271978,103.213316 L175.605529,103.213316 L175.605529,105.8415 C176.717549,104.250031 178.642876,102.841806 181.384018,102.841806 C185.495733,102.841806 187.827712,105.693398 187.827712,109.805112 L187.827712,122.584561 L184.494161,122.584561 L184.494161,110.693724 C184.494161,107.990235 183.346998,105.954459 180.457753,105.954459 C178.050467,105.954459 175.605529,107.80699 175.605529,111.027582 L175.605529,122.584561 L172.271978,122.584561 L172.271978,103.213316 Z" id="Fill-20"></path>
                <path d="M200.080269,120.06532 C202.746106,120.06532 204.340086,118.360892 204.897351,115.953606 L207.859392,117.324178 C206.933127,120.54728 204.116678,122.992218 200.080269,122.992218 C194.67329,122.992218 190.930576,118.880504 190.930576,112.916259 C190.930576,106.916871 194.67329,102.84281 200.080269,102.84281 C204.116678,102.84281 206.85782,105.17479 207.784086,108.397892 L204.897351,109.843769 C204.340086,107.471627 202.746106,105.732055 200.080269,105.732055 C196.636269,105.732055 194.266637,108.473198 194.266637,112.916259 C194.266637,117.324178 196.636269,120.06532 200.080269,120.06532" id="Fill-21"></path>
                <path d="M213.447608,110.879982 L223.892567,110.879982 C223.819771,108.138839 222.336241,105.6939 218.967547,105.6939 C216.151098,105.6939 214.040016,107.584084 213.447608,110.879982 M210.076404,112.918267 C210.076404,107.139778 213.743812,102.842308 219.0052,102.842308 C224.41218,102.842308 227.263771,106.954022 227.263771,112.323349 L227.263771,113.435369 L213.264363,113.435369 C213.447608,117.509431 215.782098,120.102471 219.150792,120.102471 C221.746343,120.102471 223.596363,118.694247 224.188771,116.39741 L227.115669,117.436635 C225.930853,120.880635 223.003955,122.991716 219.150792,122.991716 C213.781465,122.991716 210.076404,118.880002 210.076404,112.918267" id="Fill-22"></path>
            </g>
        </g>
    </g>
</svg>